<mxfile host="app.diagrams.net" modified="2024-05-06T16:16:12.586Z" agent="Mozilla/5.0 (Windows NT 10.0; Win64; x64) AppleWebKit/537.36 (KHTML, like Gecko) Chrome/121.0.0.0 Safari/537.36 OPR/107.0.0.0" etag="YX9nhNQx1XLi2tvOfvFn" version="24.3.1" type="device">
  <diagram id="C5RBs43oDa-KdzZeNtuy" name="Page-1">
    <mxGraphModel dx="3360" dy="1393" grid="1" gridSize="10" guides="1" tooltips="1" connect="1" arrows="1" fold="1" page="1" pageScale="1" pageWidth="827" pageHeight="1169" math="0" shadow="0">
      <root>
        <mxCell id="WIyWlLk6GJQsqaUBKTNV-0" />
        <mxCell id="WIyWlLk6GJQsqaUBKTNV-1" parent="WIyWlLk6GJQsqaUBKTNV-0" />
        <mxCell id="WHC7FNLEJJe4XPoveYnM-81" value="" style="rounded=0;whiteSpace=wrap;html=1;" vertex="1" parent="WIyWlLk6GJQsqaUBKTNV-1">
          <mxGeometry x="-190" y="440" width="2140" height="1060" as="geometry" />
        </mxCell>
        <mxCell id="WHC7FNLEJJe4XPoveYnM-0" value="&lt;p style=&quot;margin:0px;margin-top:4px;text-align:center;&quot;&gt;&lt;i&gt;&amp;lt;&amp;lt;IEBook&amp;gt;&amp;gt;&lt;/i&gt;&lt;br&gt;&lt;b&gt;Interface&lt;/b&gt;&lt;/p&gt;&lt;hr size=&quot;1&quot; style=&quot;border-style:solid;&quot;&gt;&lt;p style=&quot;margin:0px;margin-left:4px;&quot;&gt;+ UsefulFunctionIEBook(): string&lt;br&gt;&lt;/p&gt;" style="verticalAlign=top;align=left;overflow=fill;html=1;whiteSpace=wrap;" vertex="1" parent="WIyWlLk6GJQsqaUBKTNV-1">
          <mxGeometry x="1110" y="500" width="190" height="70" as="geometry" />
        </mxCell>
        <mxCell id="WHC7FNLEJJe4XPoveYnM-1" value="&lt;p style=&quot;margin:0px;margin-top:4px;text-align:center;&quot;&gt;&lt;i&gt;&amp;lt;&amp;lt;ILaptop&amp;gt;&amp;gt;&lt;/i&gt;&lt;br&gt;&lt;b&gt;Interface&lt;/b&gt;&lt;/p&gt;&lt;hr size=&quot;1&quot; style=&quot;border-style:solid;&quot;&gt;&lt;p style=&quot;margin:0px;margin-left:4px;&quot;&gt;+ UsefulFunctionI&lt;i style=&quot;text-align: center;&quot;&gt;Laptop&lt;/i&gt;(): string&lt;br&gt;&lt;/p&gt;" style="verticalAlign=top;align=left;overflow=fill;html=1;whiteSpace=wrap;" vertex="1" parent="WIyWlLk6GJQsqaUBKTNV-1">
          <mxGeometry x="160" y="930" width="190" height="70" as="geometry" />
        </mxCell>
        <mxCell id="WHC7FNLEJJe4XPoveYnM-2" value="&lt;p style=&quot;margin:0px;margin-top:4px;text-align:center;&quot;&gt;&lt;i&gt;&amp;lt;&amp;lt;ISmartphone&amp;gt;&amp;gt;&lt;/i&gt;&lt;br&gt;&lt;b&gt;Interface&lt;/b&gt;&lt;/p&gt;&lt;hr size=&quot;1&quot; style=&quot;border-style:solid;&quot;&gt;&lt;p style=&quot;margin:0px;margin-left:4px;&quot;&gt;+ UsefulFunctionI&lt;i style=&quot;text-align: center;&quot;&gt;Smartphone&lt;/i&gt;(): string&lt;br&gt;&lt;/p&gt;" style="verticalAlign=top;align=left;overflow=fill;html=1;whiteSpace=wrap;" vertex="1" parent="WIyWlLk6GJQsqaUBKTNV-1">
          <mxGeometry x="147" y="600" width="210" height="70" as="geometry" />
        </mxCell>
        <mxCell id="WHC7FNLEJJe4XPoveYnM-3" value="&lt;p style=&quot;margin:0px;margin-top:4px;text-align:center;&quot;&gt;&lt;i&gt;&amp;lt;&amp;lt;INetbook&amp;gt;&amp;gt;&lt;/i&gt;&lt;br&gt;&lt;b&gt;Interface&lt;/b&gt;&lt;/p&gt;&lt;hr size=&quot;1&quot; style=&quot;border-style:solid;&quot;&gt;&lt;p style=&quot;margin:0px;margin-left:4px;&quot;&gt;+ UsefulFunctionINetbook(): string&lt;br&gt;&lt;/p&gt;" style="verticalAlign=top;align=left;overflow=fill;html=1;whiteSpace=wrap;" vertex="1" parent="WIyWlLk6GJQsqaUBKTNV-1">
          <mxGeometry x="1010" y="1180" width="190" height="70" as="geometry" />
        </mxCell>
        <mxCell id="WHC7FNLEJJe4XPoveYnM-5" value="SmartphoneBalaxy" style="swimlane;fontStyle=1;align=center;verticalAlign=top;childLayout=stackLayout;horizontal=1;startSize=26;horizontalStack=0;resizeParent=1;resizeParentMax=0;resizeLast=0;collapsible=1;marginBottom=0;whiteSpace=wrap;html=1;" vertex="1" parent="WIyWlLk6GJQsqaUBKTNV-1">
          <mxGeometry x="-123" y="790" width="220" height="52" as="geometry" />
        </mxCell>
        <mxCell id="WHC7FNLEJJe4XPoveYnM-8" value="+ UsefulFunctionSmartphone(): string" style="text;strokeColor=none;fillColor=none;align=left;verticalAlign=top;spacingLeft=4;spacingRight=4;overflow=hidden;rotatable=0;points=[[0,0.5],[1,0.5]];portConstraint=eastwest;whiteSpace=wrap;html=1;" vertex="1" parent="WHC7FNLEJJe4XPoveYnM-5">
          <mxGeometry y="26" width="220" height="26" as="geometry" />
        </mxCell>
        <mxCell id="WHC7FNLEJJe4XPoveYnM-9" value="SmartphoneIProne" style="swimlane;fontStyle=1;align=center;verticalAlign=top;childLayout=stackLayout;horizontal=1;startSize=26;horizontalStack=0;resizeParent=1;resizeParentMax=0;resizeLast=0;collapsible=1;marginBottom=0;whiteSpace=wrap;html=1;" vertex="1" parent="WIyWlLk6GJQsqaUBKTNV-1">
          <mxGeometry x="147" y="790" width="210" height="52" as="geometry" />
        </mxCell>
        <mxCell id="WHC7FNLEJJe4XPoveYnM-12" value="+ UsefulFunctionSmartphone(): string" style="text;strokeColor=none;fillColor=none;align=left;verticalAlign=top;spacingLeft=4;spacingRight=4;overflow=hidden;rotatable=0;points=[[0,0.5],[1,0.5]];portConstraint=eastwest;whiteSpace=wrap;html=1;" vertex="1" parent="WHC7FNLEJJe4XPoveYnM-9">
          <mxGeometry y="26" width="210" height="26" as="geometry" />
        </mxCell>
        <mxCell id="WHC7FNLEJJe4XPoveYnM-13" value="SmartphoneKiaomi" style="swimlane;fontStyle=1;align=center;verticalAlign=top;childLayout=stackLayout;horizontal=1;startSize=26;horizontalStack=0;resizeParent=1;resizeParentMax=0;resizeLast=0;collapsible=1;marginBottom=0;whiteSpace=wrap;html=1;" vertex="1" parent="WIyWlLk6GJQsqaUBKTNV-1">
          <mxGeometry x="397" y="790" width="216" height="52" as="geometry" />
        </mxCell>
        <mxCell id="WHC7FNLEJJe4XPoveYnM-16" value="+ UsefulFunctionSmartphone(): string" style="text;strokeColor=none;fillColor=none;align=left;verticalAlign=top;spacingLeft=4;spacingRight=4;overflow=hidden;rotatable=0;points=[[0,0.5],[1,0.5]];portConstraint=eastwest;whiteSpace=wrap;html=1;" vertex="1" parent="WHC7FNLEJJe4XPoveYnM-13">
          <mxGeometry y="26" width="216" height="26" as="geometry" />
        </mxCell>
        <mxCell id="WHC7FNLEJJe4XPoveYnM-18" value="" style="endArrow=block;endSize=16;endFill=0;html=1;rounded=0;entryX=0.5;entryY=1;entryDx=0;entryDy=0;exitX=0.5;exitY=0;exitDx=0;exitDy=0;dashed=1;dashPattern=12 12;" edge="1" parent="WIyWlLk6GJQsqaUBKTNV-1" source="WHC7FNLEJJe4XPoveYnM-13" target="WHC7FNLEJJe4XPoveYnM-2">
          <mxGeometry width="160" relative="1" as="geometry">
            <mxPoint x="537" y="770" as="sourcePoint" />
            <mxPoint x="697" y="770" as="targetPoint" />
          </mxGeometry>
        </mxCell>
        <mxCell id="WHC7FNLEJJe4XPoveYnM-19" value="" style="endArrow=block;endSize=16;endFill=0;html=1;rounded=0;entryX=0.5;entryY=1;entryDx=0;entryDy=0;dashed=1;dashPattern=12 12;" edge="1" parent="WIyWlLk6GJQsqaUBKTNV-1" source="WHC7FNLEJJe4XPoveYnM-9" target="WHC7FNLEJJe4XPoveYnM-2">
          <mxGeometry width="160" relative="1" as="geometry">
            <mxPoint x="515" y="800" as="sourcePoint" />
            <mxPoint x="262" y="680" as="targetPoint" />
          </mxGeometry>
        </mxCell>
        <mxCell id="WHC7FNLEJJe4XPoveYnM-20" value="" style="endArrow=block;endSize=16;endFill=0;html=1;rounded=0;dashed=1;dashPattern=12 12;exitX=0.5;exitY=0;exitDx=0;exitDy=0;" edge="1" parent="WIyWlLk6GJQsqaUBKTNV-1" source="WHC7FNLEJJe4XPoveYnM-5">
          <mxGeometry width="160" relative="1" as="geometry">
            <mxPoint x="262" y="800" as="sourcePoint" />
            <mxPoint x="247" y="670" as="targetPoint" />
          </mxGeometry>
        </mxCell>
        <mxCell id="WHC7FNLEJJe4XPoveYnM-27" value="NetbookBalaxy" style="swimlane;fontStyle=1;align=center;verticalAlign=top;childLayout=stackLayout;horizontal=1;startSize=26;horizontalStack=0;resizeParent=1;resizeParentMax=0;resizeLast=0;collapsible=1;marginBottom=0;whiteSpace=wrap;html=1;" vertex="1" parent="WIyWlLk6GJQsqaUBKTNV-1">
          <mxGeometry x="850" y="1380" width="220" height="52" as="geometry" />
        </mxCell>
        <mxCell id="WHC7FNLEJJe4XPoveYnM-28" value="+ UsefulFunctionNetbook(): string" style="text;strokeColor=none;fillColor=none;align=left;verticalAlign=top;spacingLeft=4;spacingRight=4;overflow=hidden;rotatable=0;points=[[0,0.5],[1,0.5]];portConstraint=eastwest;whiteSpace=wrap;html=1;" vertex="1" parent="WHC7FNLEJJe4XPoveYnM-27">
          <mxGeometry y="26" width="220" height="26" as="geometry" />
        </mxCell>
        <mxCell id="WHC7FNLEJJe4XPoveYnM-29" value="NetbookIProne" style="swimlane;fontStyle=1;align=center;verticalAlign=top;childLayout=stackLayout;horizontal=1;startSize=26;horizontalStack=0;resizeParent=1;resizeParentMax=0;resizeLast=0;collapsible=1;marginBottom=0;whiteSpace=wrap;html=1;" vertex="1" parent="WIyWlLk6GJQsqaUBKTNV-1">
          <mxGeometry x="1120" y="1380" width="210" height="52" as="geometry" />
        </mxCell>
        <mxCell id="WHC7FNLEJJe4XPoveYnM-30" value="+ UsefulFunctionNetbook(): string" style="text;strokeColor=none;fillColor=none;align=left;verticalAlign=top;spacingLeft=4;spacingRight=4;overflow=hidden;rotatable=0;points=[[0,0.5],[1,0.5]];portConstraint=eastwest;whiteSpace=wrap;html=1;" vertex="1" parent="WHC7FNLEJJe4XPoveYnM-29">
          <mxGeometry y="26" width="210" height="26" as="geometry" />
        </mxCell>
        <mxCell id="WHC7FNLEJJe4XPoveYnM-31" value="NetbookKiaomi" style="swimlane;fontStyle=1;align=center;verticalAlign=top;childLayout=stackLayout;horizontal=1;startSize=26;horizontalStack=0;resizeParent=1;resizeParentMax=0;resizeLast=0;collapsible=1;marginBottom=0;whiteSpace=wrap;html=1;" vertex="1" parent="WIyWlLk6GJQsqaUBKTNV-1">
          <mxGeometry x="1370" y="1380" width="216" height="52" as="geometry" />
        </mxCell>
        <mxCell id="WHC7FNLEJJe4XPoveYnM-32" value="+ UsefulFunctionNetbook(): string" style="text;strokeColor=none;fillColor=none;align=left;verticalAlign=top;spacingLeft=4;spacingRight=4;overflow=hidden;rotatable=0;points=[[0,0.5],[1,0.5]];portConstraint=eastwest;whiteSpace=wrap;html=1;" vertex="1" parent="WHC7FNLEJJe4XPoveYnM-31">
          <mxGeometry y="26" width="216" height="26" as="geometry" />
        </mxCell>
        <mxCell id="WHC7FNLEJJe4XPoveYnM-33" value="" style="endArrow=block;endSize=16;endFill=0;html=1;rounded=0;entryX=0.5;entryY=1;entryDx=0;entryDy=0;exitX=0.5;exitY=0;exitDx=0;exitDy=0;dashed=1;dashPattern=12 12;" edge="1" parent="WIyWlLk6GJQsqaUBKTNV-1" source="WHC7FNLEJJe4XPoveYnM-31" target="WHC7FNLEJJe4XPoveYnM-3">
          <mxGeometry width="160" relative="1" as="geometry">
            <mxPoint x="1510" y="1360" as="sourcePoint" />
            <mxPoint x="1225" y="1260" as="targetPoint" />
          </mxGeometry>
        </mxCell>
        <mxCell id="WHC7FNLEJJe4XPoveYnM-34" value="" style="endArrow=block;endSize=16;endFill=0;html=1;rounded=0;entryX=0.5;entryY=1;entryDx=0;entryDy=0;dashed=1;dashPattern=12 12;" edge="1" parent="WIyWlLk6GJQsqaUBKTNV-1" source="WHC7FNLEJJe4XPoveYnM-29" target="WHC7FNLEJJe4XPoveYnM-3">
          <mxGeometry width="160" relative="1" as="geometry">
            <mxPoint x="1488" y="1390" as="sourcePoint" />
            <mxPoint x="1225" y="1260" as="targetPoint" />
          </mxGeometry>
        </mxCell>
        <mxCell id="WHC7FNLEJJe4XPoveYnM-35" value="" style="endArrow=block;endSize=16;endFill=0;html=1;rounded=0;dashed=1;dashPattern=12 12;exitX=0.5;exitY=0;exitDx=0;exitDy=0;entryX=0.5;entryY=1;entryDx=0;entryDy=0;" edge="1" parent="WIyWlLk6GJQsqaUBKTNV-1" source="WHC7FNLEJJe4XPoveYnM-27" target="WHC7FNLEJJe4XPoveYnM-3">
          <mxGeometry width="160" relative="1" as="geometry">
            <mxPoint x="1235" y="1390" as="sourcePoint" />
            <mxPoint x="1220" y="1260" as="targetPoint" />
          </mxGeometry>
        </mxCell>
        <mxCell id="WHC7FNLEJJe4XPoveYnM-36" value="LaptopBalaxy" style="swimlane;fontStyle=1;align=center;verticalAlign=top;childLayout=stackLayout;horizontal=1;startSize=26;horizontalStack=0;resizeParent=1;resizeParentMax=0;resizeLast=0;collapsible=1;marginBottom=0;whiteSpace=wrap;html=1;" vertex="1" parent="WIyWlLk6GJQsqaUBKTNV-1">
          <mxGeometry x="-120" y="1050" width="220" height="52" as="geometry" />
        </mxCell>
        <mxCell id="WHC7FNLEJJe4XPoveYnM-37" value="+ UsefulFunctionLaptop(): string" style="text;strokeColor=none;fillColor=none;align=left;verticalAlign=top;spacingLeft=4;spacingRight=4;overflow=hidden;rotatable=0;points=[[0,0.5],[1,0.5]];portConstraint=eastwest;whiteSpace=wrap;html=1;" vertex="1" parent="WHC7FNLEJJe4XPoveYnM-36">
          <mxGeometry y="26" width="220" height="26" as="geometry" />
        </mxCell>
        <mxCell id="WHC7FNLEJJe4XPoveYnM-38" value="LaptopIProne" style="swimlane;fontStyle=1;align=center;verticalAlign=top;childLayout=stackLayout;horizontal=1;startSize=26;horizontalStack=0;resizeParent=1;resizeParentMax=0;resizeLast=0;collapsible=1;marginBottom=0;whiteSpace=wrap;html=1;" vertex="1" parent="WIyWlLk6GJQsqaUBKTNV-1">
          <mxGeometry x="140" y="1050" width="210" height="52" as="geometry" />
        </mxCell>
        <mxCell id="WHC7FNLEJJe4XPoveYnM-39" value="+ UsefulFunctionLaptop(): string" style="text;strokeColor=none;fillColor=none;align=left;verticalAlign=top;spacingLeft=4;spacingRight=4;overflow=hidden;rotatable=0;points=[[0,0.5],[1,0.5]];portConstraint=eastwest;whiteSpace=wrap;html=1;" vertex="1" parent="WHC7FNLEJJe4XPoveYnM-38">
          <mxGeometry y="26" width="210" height="26" as="geometry" />
        </mxCell>
        <mxCell id="WHC7FNLEJJe4XPoveYnM-40" value="LaptopKiaomi" style="swimlane;fontStyle=1;align=center;verticalAlign=top;childLayout=stackLayout;horizontal=1;startSize=26;horizontalStack=0;resizeParent=1;resizeParentMax=0;resizeLast=0;collapsible=1;marginBottom=0;whiteSpace=wrap;html=1;" vertex="1" parent="WIyWlLk6GJQsqaUBKTNV-1">
          <mxGeometry x="370" y="1050" width="216" height="52" as="geometry" />
        </mxCell>
        <mxCell id="WHC7FNLEJJe4XPoveYnM-41" value="+ UsefulFunctionLaptop(): string" style="text;strokeColor=none;fillColor=none;align=left;verticalAlign=top;spacingLeft=4;spacingRight=4;overflow=hidden;rotatable=0;points=[[0,0.5],[1,0.5]];portConstraint=eastwest;whiteSpace=wrap;html=1;" vertex="1" parent="WHC7FNLEJJe4XPoveYnM-40">
          <mxGeometry y="26" width="216" height="26" as="geometry" />
        </mxCell>
        <mxCell id="WHC7FNLEJJe4XPoveYnM-42" value="" style="endArrow=block;endSize=16;endFill=0;html=1;rounded=0;entryX=0.5;entryY=1;entryDx=0;entryDy=0;exitX=0.5;exitY=0;exitDx=0;exitDy=0;dashed=1;dashPattern=12 12;" edge="1" parent="WIyWlLk6GJQsqaUBKTNV-1" source="WHC7FNLEJJe4XPoveYnM-40">
          <mxGeometry width="160" relative="1" as="geometry">
            <mxPoint x="540" y="1100" as="sourcePoint" />
            <mxPoint x="255" y="1000" as="targetPoint" />
          </mxGeometry>
        </mxCell>
        <mxCell id="WHC7FNLEJJe4XPoveYnM-43" value="" style="endArrow=block;endSize=16;endFill=0;html=1;rounded=0;entryX=0.5;entryY=1;entryDx=0;entryDy=0;dashed=1;dashPattern=12 12;" edge="1" parent="WIyWlLk6GJQsqaUBKTNV-1" source="WHC7FNLEJJe4XPoveYnM-38">
          <mxGeometry width="160" relative="1" as="geometry">
            <mxPoint x="518" y="1130" as="sourcePoint" />
            <mxPoint x="255" y="1000" as="targetPoint" />
          </mxGeometry>
        </mxCell>
        <mxCell id="WHC7FNLEJJe4XPoveYnM-44" value="" style="endArrow=block;endSize=16;endFill=0;html=1;rounded=0;dashed=1;dashPattern=12 12;exitX=0.5;exitY=0;exitDx=0;exitDy=0;" edge="1" parent="WIyWlLk6GJQsqaUBKTNV-1" source="WHC7FNLEJJe4XPoveYnM-36">
          <mxGeometry width="160" relative="1" as="geometry">
            <mxPoint x="265" y="1130" as="sourcePoint" />
            <mxPoint x="250" y="1000" as="targetPoint" />
          </mxGeometry>
        </mxCell>
        <mxCell id="WHC7FNLEJJe4XPoveYnM-45" value="EbookBalaxy" style="swimlane;fontStyle=1;align=center;verticalAlign=top;childLayout=stackLayout;horizontal=1;startSize=26;horizontalStack=0;resizeParent=1;resizeParentMax=0;resizeLast=0;collapsible=1;marginBottom=0;whiteSpace=wrap;html=1;" vertex="1" parent="WIyWlLk6GJQsqaUBKTNV-1">
          <mxGeometry x="850" y="690" width="220" height="52" as="geometry" />
        </mxCell>
        <mxCell id="WHC7FNLEJJe4XPoveYnM-46" value="+ UsefulFunctionEbook(): string" style="text;strokeColor=none;fillColor=none;align=left;verticalAlign=top;spacingLeft=4;spacingRight=4;overflow=hidden;rotatable=0;points=[[0,0.5],[1,0.5]];portConstraint=eastwest;whiteSpace=wrap;html=1;" vertex="1" parent="WHC7FNLEJJe4XPoveYnM-45">
          <mxGeometry y="26" width="220" height="26" as="geometry" />
        </mxCell>
        <mxCell id="WHC7FNLEJJe4XPoveYnM-47" value="EbookIProne" style="swimlane;fontStyle=1;align=center;verticalAlign=top;childLayout=stackLayout;horizontal=1;startSize=26;horizontalStack=0;resizeParent=1;resizeParentMax=0;resizeLast=0;collapsible=1;marginBottom=0;whiteSpace=wrap;html=1;" vertex="1" parent="WIyWlLk6GJQsqaUBKTNV-1">
          <mxGeometry x="1120" y="690" width="210" height="52" as="geometry" />
        </mxCell>
        <mxCell id="WHC7FNLEJJe4XPoveYnM-48" value="+ UsefulFunctionEbook(): string" style="text;strokeColor=none;fillColor=none;align=left;verticalAlign=top;spacingLeft=4;spacingRight=4;overflow=hidden;rotatable=0;points=[[0,0.5],[1,0.5]];portConstraint=eastwest;whiteSpace=wrap;html=1;" vertex="1" parent="WHC7FNLEJJe4XPoveYnM-47">
          <mxGeometry y="26" width="210" height="26" as="geometry" />
        </mxCell>
        <mxCell id="WHC7FNLEJJe4XPoveYnM-49" value="EbookKiaomi" style="swimlane;fontStyle=1;align=center;verticalAlign=top;childLayout=stackLayout;horizontal=1;startSize=26;horizontalStack=0;resizeParent=1;resizeParentMax=0;resizeLast=0;collapsible=1;marginBottom=0;whiteSpace=wrap;html=1;" vertex="1" parent="WIyWlLk6GJQsqaUBKTNV-1">
          <mxGeometry x="1370" y="690" width="216" height="52" as="geometry" />
        </mxCell>
        <mxCell id="WHC7FNLEJJe4XPoveYnM-50" value="+ UsefulFunctionEbook(): string" style="text;strokeColor=none;fillColor=none;align=left;verticalAlign=top;spacingLeft=4;spacingRight=4;overflow=hidden;rotatable=0;points=[[0,0.5],[1,0.5]];portConstraint=eastwest;whiteSpace=wrap;html=1;" vertex="1" parent="WHC7FNLEJJe4XPoveYnM-49">
          <mxGeometry y="26" width="216" height="26" as="geometry" />
        </mxCell>
        <mxCell id="WHC7FNLEJJe4XPoveYnM-51" value="" style="endArrow=block;endSize=16;endFill=0;html=1;rounded=0;entryX=0.5;entryY=1;entryDx=0;entryDy=0;exitX=0.5;exitY=0;exitDx=0;exitDy=0;dashed=1;dashPattern=12 12;" edge="1" parent="WIyWlLk6GJQsqaUBKTNV-1" source="WHC7FNLEJJe4XPoveYnM-49" target="WHC7FNLEJJe4XPoveYnM-0">
          <mxGeometry width="160" relative="1" as="geometry">
            <mxPoint x="1510" y="670" as="sourcePoint" />
            <mxPoint x="1225" y="570" as="targetPoint" />
          </mxGeometry>
        </mxCell>
        <mxCell id="WHC7FNLEJJe4XPoveYnM-52" value="" style="endArrow=block;endSize=16;endFill=0;html=1;rounded=0;entryX=0.5;entryY=1;entryDx=0;entryDy=0;dashed=1;dashPattern=12 12;" edge="1" parent="WIyWlLk6GJQsqaUBKTNV-1" source="WHC7FNLEJJe4XPoveYnM-47" target="WHC7FNLEJJe4XPoveYnM-0">
          <mxGeometry width="160" relative="1" as="geometry">
            <mxPoint x="1488" y="700" as="sourcePoint" />
            <mxPoint x="1225" y="570" as="targetPoint" />
          </mxGeometry>
        </mxCell>
        <mxCell id="WHC7FNLEJJe4XPoveYnM-53" value="" style="endArrow=block;endSize=16;endFill=0;html=1;rounded=0;dashed=1;dashPattern=12 12;exitX=0.5;exitY=0;exitDx=0;exitDy=0;entryX=0.5;entryY=1;entryDx=0;entryDy=0;" edge="1" parent="WIyWlLk6GJQsqaUBKTNV-1" source="WHC7FNLEJJe4XPoveYnM-45" target="WHC7FNLEJJe4XPoveYnM-0">
          <mxGeometry width="160" relative="1" as="geometry">
            <mxPoint x="1235" y="700" as="sourcePoint" />
            <mxPoint x="1220" y="570" as="targetPoint" />
          </mxGeometry>
        </mxCell>
        <mxCell id="WHC7FNLEJJe4XPoveYnM-54" value="&lt;p style=&quot;margin:0px;margin-top:4px;text-align:center;&quot;&gt;&lt;i&gt;&amp;lt;&amp;lt;I&lt;/i&gt;&lt;span style=&quot;background-color: initial; text-align: left;&quot;&gt;&lt;i&gt;DevicesFactory&lt;/i&gt;&lt;/span&gt;&lt;i style=&quot;background-color: initial;&quot;&gt;&amp;gt;&amp;gt;&lt;/i&gt;&lt;/p&gt;&lt;p style=&quot;margin:0px;margin-top:4px;text-align:center;&quot;&gt;&lt;b&gt;Interface&lt;/b&gt;&lt;/p&gt;&lt;hr size=&quot;1&quot; style=&quot;border-style:solid;&quot;&gt;&lt;p style=&quot;margin:0px;margin-left:4px;&quot;&gt;+ CreateLaptop(): ILaptop&lt;br&gt;&lt;/p&gt;&lt;p style=&quot;margin:0px;margin-left:4px;&quot;&gt;+ CreateNetbook(): INetbook&lt;br&gt;+ CreateEBook(): IEBook&lt;br&gt;+ CreateSmartphone(): ISmartphone&lt;br&gt;&lt;/p&gt;" style="verticalAlign=top;align=left;overflow=fill;html=1;whiteSpace=wrap;" vertex="1" parent="WIyWlLk6GJQsqaUBKTNV-1">
          <mxGeometry x="1550" y="820" width="210" height="120" as="geometry" />
        </mxCell>
        <mxCell id="WHC7FNLEJJe4XPoveYnM-59" value="BalaxyFactory" style="swimlane;fontStyle=1;align=center;verticalAlign=top;childLayout=stackLayout;horizontal=1;startSize=26;horizontalStack=0;resizeParent=1;resizeParentMax=0;resizeLast=0;collapsible=1;marginBottom=0;whiteSpace=wrap;html=1;" vertex="1" parent="WIyWlLk6GJQsqaUBKTNV-1">
          <mxGeometry x="850" y="1010" width="220" height="100" as="geometry" />
        </mxCell>
        <mxCell id="WHC7FNLEJJe4XPoveYnM-60" value="&lt;p style=&quot;margin: 0px 0px 0px 4px;&quot;&gt;+ CreateLaptop(): ILaptop&lt;br&gt;&lt;/p&gt;&lt;p style=&quot;margin: 0px 0px 0px 4px;&quot;&gt;+ CreateNetbook(): INetbook&lt;br&gt;+ CreateEBook(): IEBook&lt;br&gt;+ CreateSmartphone(): ISmartphone&lt;/p&gt;" style="text;strokeColor=none;fillColor=none;align=left;verticalAlign=top;spacingLeft=4;spacingRight=4;overflow=hidden;rotatable=0;points=[[0,0.5],[1,0.5]];portConstraint=eastwest;whiteSpace=wrap;html=1;" vertex="1" parent="WHC7FNLEJJe4XPoveYnM-59">
          <mxGeometry y="26" width="220" height="74" as="geometry" />
        </mxCell>
        <mxCell id="WHC7FNLEJJe4XPoveYnM-61" value="IProneFactory" style="swimlane;fontStyle=1;align=center;verticalAlign=top;childLayout=stackLayout;horizontal=1;startSize=26;horizontalStack=0;resizeParent=1;resizeParentMax=0;resizeLast=0;collapsible=1;marginBottom=0;whiteSpace=wrap;html=1;" vertex="1" parent="WIyWlLk6GJQsqaUBKTNV-1">
          <mxGeometry x="1120" y="1010" width="210" height="100" as="geometry" />
        </mxCell>
        <mxCell id="WHC7FNLEJJe4XPoveYnM-62" value="&lt;p style=&quot;margin: 0px 0px 0px 4px;&quot;&gt;+ CreateLaptop(): ILaptop&lt;br&gt;&lt;/p&gt;&lt;p style=&quot;margin: 0px 0px 0px 4px;&quot;&gt;+ CreateNetbook(): INetbook&lt;br&gt;+ CreateEBook(): IEBook&lt;br&gt;+ CreateSmartphone(): ISmartphone&lt;/p&gt;" style="text;strokeColor=none;fillColor=none;align=left;verticalAlign=top;spacingLeft=4;spacingRight=4;overflow=hidden;rotatable=0;points=[[0,0.5],[1,0.5]];portConstraint=eastwest;whiteSpace=wrap;html=1;" vertex="1" parent="WHC7FNLEJJe4XPoveYnM-61">
          <mxGeometry y="26" width="210" height="74" as="geometry" />
        </mxCell>
        <mxCell id="WHC7FNLEJJe4XPoveYnM-63" value="KiaomiFactory" style="swimlane;fontStyle=1;align=center;verticalAlign=top;childLayout=stackLayout;horizontal=1;startSize=26;horizontalStack=0;resizeParent=1;resizeParentMax=0;resizeLast=0;collapsible=1;marginBottom=0;whiteSpace=wrap;html=1;" vertex="1" parent="WIyWlLk6GJQsqaUBKTNV-1">
          <mxGeometry x="1370" y="1010" width="216" height="100" as="geometry" />
        </mxCell>
        <mxCell id="WHC7FNLEJJe4XPoveYnM-64" value="&lt;p style=&quot;margin: 0px 0px 0px 4px;&quot;&gt;+ CreateLaptop(): ILaptop&lt;br&gt;&lt;/p&gt;&lt;p style=&quot;margin: 0px 0px 0px 4px;&quot;&gt;+ CreateNetbook(): INetbook&lt;br&gt;+ CreateEBook(): IEBook&lt;br&gt;+ CreateSmartphone(): ISmartphone&lt;/p&gt;" style="text;strokeColor=none;fillColor=none;align=left;verticalAlign=top;spacingLeft=4;spacingRight=4;overflow=hidden;rotatable=0;points=[[0,0.5],[1,0.5]];portConstraint=eastwest;whiteSpace=wrap;html=1;" vertex="1" parent="WHC7FNLEJJe4XPoveYnM-63">
          <mxGeometry y="26" width="216" height="74" as="geometry" />
        </mxCell>
        <mxCell id="WHC7FNLEJJe4XPoveYnM-65" value="" style="endArrow=block;endSize=16;endFill=0;html=1;rounded=0;dashed=1;dashPattern=12 12;exitX=0.5;exitY=0;exitDx=0;exitDy=0;entryX=0.5;entryY=1;entryDx=0;entryDy=0;" edge="1" parent="WIyWlLk6GJQsqaUBKTNV-1" source="WHC7FNLEJJe4XPoveYnM-59" target="WHC7FNLEJJe4XPoveYnM-54">
          <mxGeometry width="160" relative="1" as="geometry">
            <mxPoint x="230" y="910" as="sourcePoint" />
            <mxPoint x="490" y="790" as="targetPoint" />
          </mxGeometry>
        </mxCell>
        <mxCell id="WHC7FNLEJJe4XPoveYnM-66" value="" style="endArrow=block;endSize=16;endFill=0;html=1;rounded=0;dashed=1;dashPattern=12 12;exitX=0.5;exitY=0;exitDx=0;exitDy=0;entryX=0.5;entryY=1;entryDx=0;entryDy=0;" edge="1" parent="WIyWlLk6GJQsqaUBKTNV-1" source="WHC7FNLEJJe4XPoveYnM-61" target="WHC7FNLEJJe4XPoveYnM-54">
          <mxGeometry width="160" relative="1" as="geometry">
            <mxPoint x="257" y="920" as="sourcePoint" />
            <mxPoint x="515" y="810" as="targetPoint" />
          </mxGeometry>
        </mxCell>
        <mxCell id="WHC7FNLEJJe4XPoveYnM-67" value="" style="endArrow=block;endSize=16;endFill=0;html=1;rounded=0;dashed=1;dashPattern=12 12;exitX=0.5;exitY=0;exitDx=0;exitDy=0;entryX=0.5;entryY=1;entryDx=0;entryDy=0;" edge="1" parent="WIyWlLk6GJQsqaUBKTNV-1" source="WHC7FNLEJJe4XPoveYnM-63" target="WHC7FNLEJJe4XPoveYnM-54">
          <mxGeometry width="160" relative="1" as="geometry">
            <mxPoint x="757" y="900" as="sourcePoint" />
            <mxPoint x="750" y="790" as="targetPoint" />
          </mxGeometry>
        </mxCell>
        <mxCell id="WHC7FNLEJJe4XPoveYnM-68" value="Use" style="endArrow=open;endSize=12;dashed=1;html=1;rounded=0;entryX=0.437;entryY=1.013;entryDx=0;entryDy=0;entryPerimeter=0;exitX=0;exitY=0.5;exitDx=0;exitDy=0;edgeStyle=orthogonalEdgeStyle;" edge="1" parent="WIyWlLk6GJQsqaUBKTNV-1" source="WHC7FNLEJJe4XPoveYnM-60" target="WHC7FNLEJJe4XPoveYnM-37">
          <mxGeometry width="160" relative="1" as="geometry">
            <mxPoint x="350" y="660" as="sourcePoint" />
            <mxPoint x="510" y="660" as="targetPoint" />
            <Array as="points">
              <mxPoint x="830" y="1073" />
              <mxPoint x="830" y="1190" />
              <mxPoint x="-24" y="1190" />
            </Array>
          </mxGeometry>
        </mxCell>
        <mxCell id="WHC7FNLEJJe4XPoveYnM-69" value="Use" style="endArrow=open;endSize=12;dashed=1;html=1;rounded=0;entryX=0.491;entryY=1.141;entryDx=0;entryDy=0;entryPerimeter=0;exitX=0.5;exitY=0;exitDx=0;exitDy=0;" edge="1" parent="WIyWlLk6GJQsqaUBKTNV-1" source="WHC7FNLEJJe4XPoveYnM-59" target="WHC7FNLEJJe4XPoveYnM-46">
          <mxGeometry width="160" relative="1" as="geometry">
            <mxPoint x="250" y="910" as="sourcePoint" />
            <mxPoint x="-114" y="602" as="targetPoint" />
          </mxGeometry>
        </mxCell>
        <mxCell id="WHC7FNLEJJe4XPoveYnM-70" value="Use" style="endArrow=open;endSize=12;dashed=1;html=1;rounded=0;" edge="1" parent="WIyWlLk6GJQsqaUBKTNV-1">
          <mxGeometry width="160" relative="1" as="geometry">
            <mxPoint x="960" y="1110" as="sourcePoint" />
            <mxPoint x="960" y="1380" as="targetPoint" />
          </mxGeometry>
        </mxCell>
        <mxCell id="WHC7FNLEJJe4XPoveYnM-71" value="Use" style="endArrow=open;endSize=12;dashed=1;html=1;rounded=0;exitX=0.5;exitY=0;exitDx=0;exitDy=0;" edge="1" parent="WIyWlLk6GJQsqaUBKTNV-1" source="WHC7FNLEJJe4XPoveYnM-59" target="WHC7FNLEJJe4XPoveYnM-8">
          <mxGeometry width="160" relative="1" as="geometry">
            <mxPoint x="250" y="910" as="sourcePoint" />
            <mxPoint x="662" y="272" as="targetPoint" />
          </mxGeometry>
        </mxCell>
        <mxCell id="WHC7FNLEJJe4XPoveYnM-72" value="Use" style="endArrow=open;endSize=12;dashed=1;html=1;rounded=0;entryX=0.5;entryY=1.013;entryDx=0;entryDy=0;entryPerimeter=0;edgeStyle=orthogonalEdgeStyle;" edge="1" parent="WIyWlLk6GJQsqaUBKTNV-1" target="WHC7FNLEJJe4XPoveYnM-39">
          <mxGeometry width="160" relative="1" as="geometry">
            <mxPoint x="1210" y="1110" as="sourcePoint" />
            <mxPoint x="-93" y="272" as="targetPoint" />
            <Array as="points">
              <mxPoint x="1210" y="1109" />
              <mxPoint x="1210" y="1170" />
              <mxPoint x="245" y="1170" />
            </Array>
          </mxGeometry>
        </mxCell>
        <mxCell id="WHC7FNLEJJe4XPoveYnM-73" value="Use" style="endArrow=open;endSize=12;dashed=1;html=1;rounded=0;exitX=0.5;exitY=0;exitDx=0;exitDy=0;" edge="1" parent="WIyWlLk6GJQsqaUBKTNV-1" source="WHC7FNLEJJe4XPoveYnM-61">
          <mxGeometry width="160" relative="1" as="geometry">
            <mxPoint x="510" y="910" as="sourcePoint" />
            <mxPoint x="1220" y="740" as="targetPoint" />
          </mxGeometry>
        </mxCell>
        <mxCell id="WHC7FNLEJJe4XPoveYnM-75" value="Use" style="endArrow=open;endSize=12;dashed=1;html=1;rounded=0;" edge="1" parent="WIyWlLk6GJQsqaUBKTNV-1">
          <mxGeometry width="160" relative="1" as="geometry">
            <mxPoint x="1225" y="1110" as="sourcePoint" />
            <mxPoint x="1225" y="1380" as="targetPoint" />
          </mxGeometry>
        </mxCell>
        <mxCell id="WHC7FNLEJJe4XPoveYnM-76" value="Use" style="endArrow=open;endSize=12;dashed=1;html=1;rounded=0;exitX=0.5;exitY=0;exitDx=0;exitDy=0;entryX=0.454;entryY=0.941;entryDx=0;entryDy=0;entryPerimeter=0;" edge="1" parent="WIyWlLk6GJQsqaUBKTNV-1" source="WHC7FNLEJJe4XPoveYnM-61" target="WHC7FNLEJJe4XPoveYnM-12">
          <mxGeometry width="160" relative="1" as="geometry">
            <mxPoint x="1235" y="1020" as="sourcePoint" />
            <mxPoint x="940" y="272" as="targetPoint" />
          </mxGeometry>
        </mxCell>
        <mxCell id="WHC7FNLEJJe4XPoveYnM-77" value="Use" style="endArrow=open;endSize=12;dashed=1;html=1;rounded=0;" edge="1" parent="WIyWlLk6GJQsqaUBKTNV-1">
          <mxGeometry width="160" relative="1" as="geometry">
            <mxPoint x="1478" y="1110" as="sourcePoint" />
            <mxPoint x="1480" y="1380" as="targetPoint" />
          </mxGeometry>
        </mxCell>
        <mxCell id="WHC7FNLEJJe4XPoveYnM-78" value="Use" style="endArrow=open;endSize=12;dashed=1;html=1;rounded=0;exitX=0.5;exitY=0;exitDx=0;exitDy=0;" edge="1" parent="WIyWlLk6GJQsqaUBKTNV-1" source="WHC7FNLEJJe4XPoveYnM-63" target="WHC7FNLEJJe4XPoveYnM-50">
          <mxGeometry width="160" relative="1" as="geometry">
            <mxPoint x="1488" y="1020" as="sourcePoint" />
            <mxPoint x="1193" y="280" as="targetPoint" />
          </mxGeometry>
        </mxCell>
        <mxCell id="WHC7FNLEJJe4XPoveYnM-79" value="Use" style="endArrow=open;endSize=12;dashed=1;html=1;rounded=0;entryX=0.485;entryY=1.038;entryDx=0;entryDy=0;entryPerimeter=0;edgeStyle=orthogonalEdgeStyle;" edge="1" parent="WIyWlLk6GJQsqaUBKTNV-1" target="WHC7FNLEJJe4XPoveYnM-41">
          <mxGeometry width="160" relative="1" as="geometry">
            <mxPoint x="1470" y="1110" as="sourcePoint" />
            <mxPoint x="1204" y="602" as="targetPoint" />
            <Array as="points">
              <mxPoint x="1470" y="1110" />
              <mxPoint x="1470" y="1140" />
              <mxPoint x="475" y="1140" />
            </Array>
          </mxGeometry>
        </mxCell>
        <mxCell id="WHC7FNLEJJe4XPoveYnM-80" value="Use" style="endArrow=open;endSize=12;dashed=1;html=1;rounded=0;exitX=0.5;exitY=0;exitDx=0;exitDy=0;" edge="1" parent="WIyWlLk6GJQsqaUBKTNV-1" source="WHC7FNLEJJe4XPoveYnM-63" target="WHC7FNLEJJe4XPoveYnM-16">
          <mxGeometry width="160" relative="1" as="geometry">
            <mxPoint x="1488" y="1020" as="sourcePoint" />
            <mxPoint x="385" y="533" as="targetPoint" />
          </mxGeometry>
        </mxCell>
      </root>
    </mxGraphModel>
  </diagram>
</mxfile>
